# xmcd
#
# Track frame offsets:
#	150
#	24800
#	48418
#	66613
#	91414
#	106394
#	129614
#	145109
#	163911
#	180305
#	200902
#
# Disc length: 2907 seconds
#
# Revision: 0
# Processed by: cddbd v1.5.2PL0 Copyright (c) Steve Scherf et al.
# Submitted via: dBpowerAMP V4.0
#
DISCID=9d0b590b
DTITLE=Mark River - Legacy
DYEAR=2007
DGENRE=Blues
TTITLE0=River Is My Name
TTITLE1=I Believe
TTITLE2=Piece Working
TTITLE3=Like Father Like Son
TTITLE4=In Times Like These
TTITLE5=Legacy
TTITLE6=I'm Not
TTITLE7=Golden Oldie Days
TTITLE8=I Will Always Be Your Friend
TTITLE9=Smokin' Chokin' 
TTITLE10=Intimidator
EXTD=Mark is a native from Florida, a wonderful artist, thank you for bringing the love of my life back to me while listening to your music at Peanuts Bar in New Smyrna Beach. John Adair, Pickford, Michigan
EXTT0=
EXTT1=
EXTT2=
EXTT3=
EXTT4=
EXTT5=
EXTT6=
EXTT7=
EXTT8=
EXTT9=
EXTT10=
PLAYORDER=
